<?xml version="1.0" encoding="UTF-8" standalone="no"?>
<!DOCTYPE svg PUBLIC "-//W3C//DTD SVG 1.1//EN" "http://www.w3.org/Graphics/SVG/1.1/DTD/svg11.dtd">
<svg xmlns="http://www.w3.org/2000/svg" version="1.1" viewBox="0.00 0.00 629.00 622.00">
<path fill="#2f794350" d="
  M 517.90 78.82
  A 0.73 0.73 0.0 0 1 517.96 79.88
  L 517.03 80.86
  Q 516.61 81.31 516.14 80.91
  C 406.13 -13.81 246.50 -18.83 130.06 66.98
  A 1.34 1.34 0.0 0 1 129.00 67.21
  Q 127.62 66.94 127.81 65.92
  Q 127.91 65.38 128.58 64.89
  C 246.12 -21.97 406.48 -16.27 517.90 78.82
  Z"
/>
<path fill="#2f794350" d="
  M 500.26 132.35
  Q 437.88 69.58 349.30 56.99
  C 342.14 55.97 333.85 55.51 326.13 54.91
  Q 325.55 54.87 325.57 54.29
  L 325.96 45.27
  Q 326.00 44.42 326.85 44.46
  C 464.69 51.24 573.23 157.09 584.51 293.57
  C 592.95 395.59 541.77 494.97 454.22 547.48
  Q 389.39 586.35 311.58 586.60
  Q 310.75 586.60 310.75 585.77
  L 310.75 576.75
  Q 310.75 576.09 311.41 576.07
  C 321.65 575.77 332.46 575.60 342.16 574.45
  Q 436.77 563.21 502.37 495.49
  C 599.26 395.46 599.07 231.78 500.26 132.35
  Z"
/>
<path fill="#2f794350" d="
  M 136.93 124.62
  A 0.15 0.14 -43.6 0 1 136.92 124.82
  C 85.19 173.36 55.41 240.56 54.18 311.76
  C 52.99 380.67 79.27 445.27 126.11 495.20
  A 0.62 0.61 -44.3 0 1 126.09 496.06
  L 119.43 502.68
  A 0.51 0.50 45.4 0 1 118.71 502.67
  C 14.79 392.52 19.44 222.11 129.34 117.40
  A 0.68 0.67 -42.9 0 1 130.30 117.43
  L 136.93 124.62
  Z"
/>
<path fill="#2f794350" d="
  M 14.72 239.22
  C -19.40 381.49 44.62 525.41 175.78 591.77
  Q 176.22 591.99 176.05 592.45
  L 175.49 593.96
  A 0.58 0.58 0.0 0 1 174.69 594.27
  C 42.76 526.62 -22.27 383.43 12.06 239.03
  Q 12.22 238.35 12.91 238.46
  L 14.38 238.70
  A 0.43 0.42 -78.7 0 1 14.72 239.22
  Z"
/>
<path fill="#2f794350" d="
  M 620.65 259.61
  A 0.63 0.63 0.0 0 1 621.39 260.12
  C 650.05 424.75 546.13 582.68 382.64 619.81
  Q 381.46 620.08 380.91 619.71
  Q 380.15 619.20 380.61 617.89
  Q 380.75 617.47 381.18 617.38
  C 542.46 581.57 646.19 424.90 619.19 262.82
  Q 618.97 261.45 618.99 260.54
  Q 619.00 259.94 619.60 259.82
  L 620.65 259.61
  Z"
/>
</svg>
