<svg width="65" height="23" viewBox="0 0 65 23" fill="none" xmlns="http://www.w3.org/2000/svg">
<g clip-path="url(#clip0_589_608)">
<path d="M54.9685 6.33998C52.0219 8.11998 49.3285 10.22 46.8885 12.64C46.8383 12.6924 46.7725 12.7262 46.7012 12.7363C46.6299 12.7464 46.5569 12.7322 46.4935 12.696C46.4301 12.6597 46.3796 12.6034 46.3498 12.5355C46.32 12.4676 46.3125 12.3919 46.3285 12.32C48.4685 3.72998 54.3885 -2.33002 63.8385 1.62998C64.1719 1.76998 64.3252 2.01998 64.2985 2.37998C63.6685 9.81998 53.8285 12.2 48.3785 13.91C48.2881 13.9415 48.1895 13.9404 48.0998 13.9069C48.0101 13.8733 47.935 13.8094 47.8875 13.7263C47.84 13.6431 47.8231 13.546 47.8397 13.4517C47.8563 13.3574 47.9054 13.2719 47.9785 13.21L55.2685 6.74998C55.3155 6.70606 55.345 6.64561 55.3512 6.58064C55.3574 6.51567 55.3399 6.45093 55.3021 6.39929C55.2643 6.34765 55.209 6.31289 55.1472 6.3019C55.0854 6.29091 55.0216 6.30451 54.9685 6.33998Z" fill="#906348"/>
<path d="M36.9207 6.84997L42.4807 11.96C42.994 12.4333 42.914 12.5866 42.2407 12.42C37.2107 11.19 31.7207 9.42997 29.9007 4.07997C29.8429 3.91075 29.8212 3.73131 29.837 3.55321C29.8529 3.3751 29.9058 3.20228 29.9925 3.04589C30.0792 2.8895 30.1976 2.753 30.3403 2.64519C30.4829 2.53739 30.6466 2.46066 30.8207 2.41997C37.534 0.866632 41.7774 3.36997 43.5507 9.92997C43.9307 11.35 43.5974 11.5433 42.5507 10.51C40.944 8.9233 39.124 7.6233 37.0907 6.60997C37.059 6.59591 37.0235 6.59325 36.9901 6.60243C36.9567 6.61162 36.9275 6.63209 36.9074 6.66036C36.8874 6.68863 36.8778 6.72297 36.8802 6.75753C36.8826 6.7921 36.8969 6.82476 36.9207 6.84997Z" fill="#2F7943"/>
<path d="M1.02988 16.08L57.9399 16.53C58.2865 16.5366 58.3999 16.7 58.2799 17.02C54.5199 27.47 38.3199 19.5 31.2499 19.5C21.1832 19.5066 11.1165 19.4966 1.04988 19.47C0.939301 19.4695 0.830097 19.4454 0.729508 19.3995C0.628918 19.3536 0.539242 19.2868 0.466428 19.2036C0.393613 19.1204 0.339324 19.0226 0.307161 18.9168C0.274999 18.811 0.265698 18.6996 0.279875 18.59L0.569875 16.48C0.603209 16.2133 0.756542 16.08 1.02988 16.08Z" fill="#906348"/>
</g>
<defs>
<clipPath id="clip0_589_608">
<rect width="65" height="23" fill="white"/>
</clipPath>
</defs>
</svg>
