<?xml version="1.0" encoding="UTF-8" standalone="no"?>
<!DOCTYPE svg PUBLIC "-//W3C//DTD SVG 1.1//EN" "http://www.w3.org/Graphics/SVG/1.1/DTD/svg11.dtd">
<svg xmlns="http://www.w3.org/2000/svg" version="1.1" viewBox="0.00 0.00 1447.00 1449.00">
<path fill="#2f7943" d="
  M 705.81 0.00
  L 711.06 0.00
  C 757.56 4.44 764.30 67.83 719.96 81.72
  Q 712.56 84.04 704.37 83.17
  C 675.80 80.14 658.15 49.96 670.87 23.72
  Q 680.96 2.92 705.81 0.00
  Z"
/>
<path fill="#906348" d="
  M 803.04 47.01
  C 802.93 42.40 806.54 37.37 811.09 36.15
  Q 813.16 35.60 817.40 36.25
  Q 887.55 46.99 954.25 71.26
  C 956.62 72.13 959.43 73.02 961.14 74.88
  C 970.58 85.19 960.32 101.76 946.32 96.69
  Q 883.29 73.89 817.15 62.97
  C 808.66 61.57 803.25 55.93 803.04 47.01
  Z"
/>
<path fill="#906348" d="
  M 718.44 1449.00
  L 700.20 1449.00
  Q 517.05 1445.61 358.89 1356.03
  C 241.62 1289.62 143.02 1187.47 80.80 1067.91
  Q 2.81 918.02 0.00 747.94
  L 0.00 730.20
  C 4.80 381.95 258.47 91.10 600.74 36.72
  C 616.85 34.16 616.45 55.09 606.01 61.54
  Q 603.00 63.40 596.04 64.59
  Q 430.69 92.96 297.83 193.33
  C 18.40 404.41 -55.64 793.34 125.29 1092.94
  C 227.03 1261.41 398.21 1378.01 591.57 1412.18
  C 948.57 1475.27 1294.35 1246.61 1376.21 894.24
  Q 1379.55 879.86 1383.14 860.94
  C 1385.20 850.13 1393.42 843.34 1404.50 842.95
  C 1411.57 842.69 1412.20 847.95 1411.23 853.67
  Q 1379.51 1041.71 1260.02 1188.27
  C 1149.92 1323.30 992.62 1413.24 820.69 1440.46
  Q 772.18 1448.14 718.44 1449.00
  Z"
/>
<circle fill="#906348" cx="1026.54" cy="109.86" r="15.11"/>
<circle fill="#906348" cx="1079.57" cy="140.15" r="15.12"/>
<path fill="#906348" d="
  M 1238.22 304.21
  A 6.77 6.60 86.6 0 1 1236.77 302.89
  Q 1191.95 248.67 1135.65 203.61
  C 1125.65 195.61 1135.31 177.75 1147.95 180.78
  Q 1150.46 181.38 1154.52 184.65
  Q 1209.98 229.20 1255.53 283.84
  Q 1258.53 287.45 1259.27 290.38
  C 1262.22 302.10 1248.26 311.00 1238.22 304.21
  Z"
/>
<path fill="#2f7943" d="
  M 998.94 460.06
  C 976.76 437.72 972.47 406.48 980.56 376.91
  C 984.39 362.93 990.93 354.66 1005.74 353.75
  C 1008.48 353.58 1009.61 351.75 1010.11 349.11
  Q 1019.43 300.16 1028.92 250.37
  Q 1029.27 248.53 1031.09 248.15
  Q 1062.53 241.50 1093.32 235.08
  C 1095.29 234.67 1096.31 235.21 1096.48 237.31
  Q 1098.85 265.77 1109.34 292.09
  C 1113.41 302.29 1119.60 313.25 1125.15 323.58
  C 1143.26 357.27 1158.95 396.40 1146.89 434.91
  C 1133.86 476.48 1092.33 485.76 1053.68 481.99
  C 1032.85 479.96 1014.09 475.33 998.94 460.06
  Z
  M 1038.19 359.81
  C 1054.93 372.99 1049.66 399.31 1030.59 407.14
  C 1024.06 409.83 1016.00 409.23 1008.93 408.38
  C 1006.60 408.10 1001.38 407.97 1003.00 412.22
  Q 1011.35 434.15 1034.69 441.31
  C 1054.69 447.44 1071.33 437.27 1076.67 417.66
  C 1082.84 394.96 1076.37 378.20 1067.04 357.95
  C 1057.75 337.81 1051.54 313.59 1043.98 291.55
  Q 1043.35 289.72 1042.71 289.37
  Q 1041.60 288.75 1041.46 290.02
  Q 1038.14 320.31 1033.11 350.33
  C 1032.35 354.90 1034.83 357.17 1038.19 359.81
  Z"
/>
<path fill="#2f7943" d="
  M 689.32 499.08
  A 1.71 1.71 0.0 0 0 691.84 500.77
  C 771.36 457.52 878.27 463.89 936.11 539.89
  C 971.56 586.48 987.64 649.96 984.89 707.44
  C 981.48 778.47 940.79 839.18 883.78 879.40
  C 830.05 917.30 769.69 925.90 705.25 916.02
  C 617.73 902.60 559.90 829.25 566.73 740.94
  C 570.80 688.33 607.20 653.95 658.66 647.10
  C 694.38 642.34 728.84 653.72 744.26 688.50
  C 745.27 690.79 744.28 692.30 741.87 692.72
  C 709.36 698.35 679.98 715.99 672.57 750.58
  Q 668.13 771.30 676.20 793.51
  C 691.59 835.87 733.44 861.03 778.01 847.58
  C 871.38 819.41 862.37 691.15 834.72 622.30
  C 819.71 584.94 793.35 559.85 753.33 552.58
  Q 744.65 551.00 735.06 551.42
  C 687.44 553.49 643.51 574.28 604.89 600.92
  A 0.70 0.70 0.0 0 1 603.79 600.28
  L 634.75 251.50
  A 1.75 1.74 5.9 0 1 636.70 249.93
  C 686.65 255.82 736.76 261.16 786.65 264.68
  Q 831.96 267.88 876.99 261.21
  C 901.85 257.53 926.98 250.86 948.02 236.98
  C 949.63 235.91 951.93 236.27 952.20 238.26
  Q 954.59 255.98 955.84 273.82
  C 958.90 317.52 936.70 363.04 888.74 368.01
  C 869.22 370.03 846.92 369.05 826.31 366.64
  Q 768.00 359.82 710.66 347.10
  C 707.48 346.39 705.93 347.30 705.58 350.57
  Q 697.53 424.93 689.32 499.08
  Z"
/>
<path fill="#2f7943" d="
  M 262.26 348.01
  A 1.83 1.82 -69.2 0 1 261.42 346.13
  Q 264.69 328.02 268.03 310.10
  C 268.45 307.85 269.60 307.01 271.80 306.98
  C 320.09 306.50 368.99 300.19 412.69 278.83
  Q 452.06 259.58 491.71 240.12
  Q 492.16 239.90 493.02 240.43
  Q 493.45 240.70 493.35 241.76
  Q 461.84 568.09 430.22 893.44
  Q 429.96 896.13 427.25 896.12
  L 300.27 895.44
  Q 298.36 895.43 298.54 893.53
  L 350.08 348.99
  Q 350.14 348.33 349.48 348.33
  Q 306.59 348.63 264.50 348.57
  Q 263.17 348.57 262.26 348.01
  Z"
/>
<circle fill="#906348" cx="1295.47" cy="352.29" r="15.11"/>
<circle fill="#906348" cx="1329.57" cy="409.12" r="15.12"/>
<path fill="#906348" d="
  M 1402.55 653.24
  C 1394.74 652.13 1387.89 646.33 1386.69 638.26
  Q 1375.54 563.09 1348.26 492.21
  Q 1347.67 490.67 1348.13 488.07
  C 1349.36 481.01 1355.45 476.20 1362.50 476.23
  C 1368.67 476.26 1371.93 480.25 1374.12 485.99
  Q 1402.53 560.50 1413.64 639.50
  Q 1414.48 645.48 1413.55 647.98
  C 1411.89 652.47 1407.08 653.88 1402.55 653.24
  Z"
/>
<path fill="#2f7943" d="
  M 1447.00 740.30
  L 1447.00 744.81
  Q 1444.57 769.82 1422.96 780.25
  C 1404.32 789.25 1381.42 782.23 1370.30 764.98
  C 1347.04 728.89 1387.39 685.69 1425.13 705.97
  Q 1444.41 716.33 1447.00 740.30
  Z"
/>
<path fill="#906348" d="
  M 785.04 1241.20
  C 753.75 1211.85 723.59 1180.95 693.47 1150.45
  A 1.52 1.51 -44.6 0 0 691.33 1150.44
  L 595.46 1244.01
  A 2.78 2.78 0.0 0 1 591.39 1243.81
  L 582.77 1233.60
  A 2.29 2.29 0.0 0 1 582.89 1230.51
  L 676.78 1135.38
  Q 677.19 1134.96 676.77 1134.54
  Q 656.60 1114.78 636.57 1095.24
  C 632.48 1091.25 624.95 1097.78 620.30 1098.59
  C 599.54 1102.20 578.83 1084.35 565.74 1070.50
  Q 551.49 1055.42 543.35 1044.66
  C 542.38 1043.37 543.23 1041.59 544.37 1040.51
  Q 549.10 1036.01 553.90 1031.29
  A 2.81 2.81 0.0 0 1 557.83 1031.28
  C 576.72 1049.73 594.65 1068.79 618.45 1081.20
  A 0.57 0.57 0.0 0 0 619.19 1080.38
  C 604.68 1058.33 583.49 1041.78 565.56 1022.65
  A 2.76 2.75 44.9 0 1 565.55 1018.89
  C 569.59 1014.51 575.58 1004.68 582.52 1011.63
  C 599.29 1028.41 615.39 1049.07 635.57 1061.38
  C 637.28 1062.43 638.97 1062.56 639.66 1060.32
  Q 639.80 1059.86 639.59 1059.43
  Q 639.20 1058.59 638.65 1057.84
  C 625.65 1039.94 609.10 1026.08 594.96 1009.35
  C 591.31 1005.03 586.99 1000.62 588.36 995.74
  C 590.46 988.30 599.11 986.13 605.05 990.83
  C 625.95 1007.34 656.46 1034.56 655.20 1063.55
  C 654.95 1069.30 649.28 1072.25 651.89 1078.25
  Q 652.64 1079.96 655.08 1082.40
  Q 673.05 1100.35 690.37 1119.33
  A 1.85 1.85 0.0 0 0 693.06 1119.38
  Q 712.52 1099.64 732.25 1079.50
  Q 733.27 1078.46 733.55 1077.04
  A 1.47 1.45 -53.2 0 0 733.42 1076.09
  C 719.80 1049.06 740.37 1023.72 760.92 1008.69
  C 782.89 992.61 810.06 1000.36 821.35 1024.43
  C 834.22 1051.86 817.03 1077.04 794.38 1091.33
  Q 774.27 1104.01 752.32 1095.19
  Q 749.89 1094.21 748.25 1095.76
  Q 728.44 1114.43 708.88 1133.22
  A 2.37 2.35 46.7 0 0 708.79 1136.53
  C 733.38 1163.08 759.64 1188.17 785.15 1213.85
  Q 793.23 1221.99 797.27 1226.71
  C 804.55 1235.22 792.71 1248.39 785.04 1241.20
  Z"
/>
<rect fill="#2f7943" x="-64.70" y="-10.39" transform="translate(490.01,1143.31) rotate(0.1)" width="129.40" height="20.78" rx="6.40"/>
<rect fill="#2f7943" x="817.49" y="1132.99" width="129.24" height="20.74" rx="5.18"/>
</svg>
