<svg width="1447" height="1449" viewBox="0 0 1447 1449" fill="none" xmlns="http://www.w3.org/2000/svg">
<g clip-path="url(#clip0_578_604)">
<mask id="mask0_578_604" style="mask-type:luminance" maskUnits="userSpaceOnUse" x="0" y="0" width="1447" height="1449">
<path d="M1447 0H0V1449H1447V0Z" fill="white"/>
</mask>
<g mask="url(#mask0_578_604)">
<path d="M705.811 0H711.061C757.561 4.44 764.301 67.83 719.961 81.72C715.028 83.2667 709.831 83.75 704.371 83.17C675.801 80.14 658.151 49.96 670.871 23.72C677.598 9.85333 689.244 1.94667 705.811 0Z" fill="white"/>
<path d="M803.042 47.01C802.932 42.4 806.541 37.37 811.091 36.15C812.471 35.7834 814.574 35.8167 817.401 36.25C864.167 43.41 909.785 55.08 954.252 71.26C956.622 72.13 959.432 73.02 961.142 74.88C970.582 85.19 960.322 101.76 946.322 96.69C904.302 81.49 861.244 70.25 817.151 62.97C808.661 61.57 803.252 55.93 803.042 47.01Z" fill="#906348"/>
<path d="M718.44 1449H700.2C578.1 1446.74 464.33 1415.75 358.89 1356.03C241.62 1289.62 143.02 1187.47 80.8 1067.91C28.8067 967.984 1.87333 861.327 0 747.94V730.2C4.8 381.95 258.47 91.1002 600.74 36.7202C616.85 34.1602 616.45 55.0902 606.01 61.5402C604.003 62.7802 600.68 63.7969 596.04 64.5902C485.807 83.5036 386.403 126.417 297.83 193.33C18.4 404.41 -55.64 793.34 125.29 1092.94C227.03 1261.41 398.21 1378.01 591.57 1412.18C948.57 1475.27 1294.35 1246.61 1376.21 894.24C1378.44 884.654 1380.75 873.554 1383.14 860.94C1385.2 850.13 1393.42 843.34 1404.5 842.95C1411.57 842.69 1412.2 847.95 1411.23 853.67C1390.08 979.03 1339.68 1090.56 1260.02 1188.27C1149.92 1323.3 992.62 1413.24 820.69 1440.46C788.35 1445.58 754.267 1448.43 718.44 1449Z" fill="#906348"/>
<path d="M1026.54 124.97C1034.88 124.97 1041.65 118.205 1041.65 109.86C1041.65 101.515 1034.88 94.75 1026.54 94.75C1018.19 94.75 1011.43 101.515 1011.43 109.86C1011.43 118.205 1018.19 124.97 1026.54 124.97Z" fill="#906348"/>
<path d="M1079.57 155.27C1087.92 155.27 1094.69 148.5 1094.69 140.15C1094.69 131.799 1087.92 125.03 1079.57 125.03C1071.22 125.03 1064.45 131.799 1064.45 140.15C1064.45 148.5 1071.22 155.27 1079.57 155.27Z" fill="#906348"/>
<path d="M1238.22 304.21C1237.68 303.845 1237.19 303.4 1236.77 302.89C1206.89 266.743 1173.18 233.65 1135.65 203.61C1125.65 195.61 1135.31 177.75 1147.95 180.78C1149.62 181.18 1151.81 182.47 1154.52 184.65C1191.49 214.35 1225.16 247.413 1255.53 283.84C1257.53 286.247 1258.78 288.427 1259.27 290.38C1262.22 302.1 1248.26 311 1238.22 304.21Z" fill="#906348"/>
<path d="M998.941 460.06C976.761 437.72 972.471 406.48 980.561 376.91C984.391 362.93 990.931 354.66 1005.74 353.75C1008.48 353.58 1009.61 351.75 1010.11 349.11C1016.32 316.476 1022.59 283.563 1028.92 250.37C1029.15 249.143 1029.88 248.403 1031.09 248.15C1052.05 243.716 1072.79 239.36 1093.32 235.08C1095.29 234.67 1096.31 235.21 1096.48 237.31C1098.06 256.283 1102.35 274.543 1109.34 292.09C1113.41 302.29 1119.6 313.25 1125.15 323.58C1143.26 357.27 1158.95 396.4 1146.89 434.91C1133.86 476.48 1092.33 485.76 1053.68 481.99C1032.85 479.96 1014.09 475.33 998.941 460.06ZM1038.19 359.81C1054.93 372.99 1049.66 399.31 1030.59 407.14C1024.06 409.83 1016 409.23 1008.93 408.38C1006.6 408.1 1001.38 407.97 1003 412.22C1008.57 426.84 1019.13 436.536 1034.69 441.31C1054.69 447.44 1071.33 437.27 1076.67 417.66C1082.84 394.96 1076.37 378.2 1067.04 357.95C1057.75 337.81 1051.54 313.59 1043.98 291.55C1043.56 290.33 1043.14 289.603 1042.71 289.37C1041.97 288.956 1041.55 289.173 1041.46 290.02C1039.25 310.213 1036.46 330.316 1033.11 350.33C1032.35 354.9 1034.83 357.17 1038.19 359.81Z" fill="white"/>
<path d="M689.32 499.08C689.285 499.391 689.337 499.706 689.468 499.99C689.6 500.273 689.807 500.516 690.067 500.69C690.327 500.864 690.63 500.964 690.942 500.978C691.255 500.992 691.565 500.92 691.84 500.77C771.36 457.52 878.27 463.89 936.11 539.89C971.56 586.48 987.64 649.96 984.89 707.44C981.48 778.47 940.79 839.18 883.78 879.4C830.05 917.3 769.69 925.9 705.25 916.02C617.73 902.6 559.9 829.25 566.73 740.94C570.8 688.33 607.2 653.95 658.66 647.1C694.38 642.34 728.84 653.72 744.26 688.5C745.27 690.79 744.28 692.3 741.87 692.72C709.36 698.35 679.98 715.99 672.57 750.58C669.61 764.393 670.82 778.703 676.2 793.51C691.59 835.87 733.44 861.03 778.01 847.58C871.38 819.41 862.37 691.15 834.72 622.3C819.71 584.94 793.35 559.85 753.33 552.58C747.543 551.527 741.453 551.14 735.06 551.42C687.44 553.49 643.51 574.28 604.89 600.92C604.78 600.997 604.651 601.041 604.517 601.047C604.383 601.053 604.251 601.02 604.135 600.953C604.019 600.886 603.925 600.786 603.864 600.667C603.803 600.548 603.777 600.413 603.79 600.28L634.75 251.5C634.771 251.268 634.838 251.043 634.948 250.838C635.059 250.632 635.209 250.451 635.391 250.305C635.573 250.158 635.782 250.05 636.007 249.985C636.232 249.921 636.468 249.902 636.7 249.93C686.65 255.82 736.76 261.16 786.65 264.68C816.857 266.813 846.97 265.657 876.99 261.21C901.85 257.53 926.98 250.86 948.02 236.98C949.63 235.91 951.93 236.27 952.2 238.26C953.793 250.073 955.007 261.927 955.84 273.82C958.9 317.52 936.7 363.04 888.74 368.01C869.22 370.03 846.92 369.05 826.31 366.64C787.437 362.093 748.887 355.58 710.66 347.1C707.48 346.39 705.93 347.3 705.58 350.57C700.213 400.143 694.793 449.647 689.32 499.08Z" fill="white"/>
<path d="M262.259 348.01C261.947 347.819 261.7 347.537 261.55 347.202C261.4 346.866 261.354 346.493 261.419 346.13C263.599 334.057 265.803 322.047 268.029 310.1C268.449 307.85 269.599 307.01 271.799 306.98C320.089 306.5 368.989 300.19 412.689 278.83C438.936 265.997 465.276 253.094 491.709 240.12C492.009 239.974 492.446 240.077 493.019 240.43C493.306 240.61 493.416 241.054 493.349 241.76C472.343 459.314 451.299 676.54 430.219 893.44C430.046 895.234 429.056 896.127 427.249 896.12L300.269 895.44C298.996 895.434 298.419 894.797 298.539 893.53L350.079 348.99C350.119 348.55 349.919 348.33 349.479 348.33C320.886 348.53 292.559 348.61 264.499 348.57C263.613 348.57 262.866 348.384 262.259 348.01Z" fill="white"/>
<path d="M1295.47 367.4C1303.81 367.4 1310.58 360.635 1310.58 352.29C1310.58 343.945 1303.81 337.18 1295.47 337.18C1287.12 337.18 1280.36 343.945 1280.36 352.29C1280.36 360.635 1287.12 367.4 1295.47 367.4Z" fill="#906348"/>
<path d="M1329.57 424.24C1337.92 424.24 1344.69 417.471 1344.69 409.12C1344.69 400.769 1337.92 394 1329.57 394C1321.22 394 1314.45 400.769 1314.45 409.12C1314.45 417.471 1321.22 424.24 1329.57 424.24Z" fill="#906348"/>
<path d="M1402.55 653.24C1394.74 652.13 1387.89 646.33 1386.69 638.26C1379.26 588.146 1366.45 539.463 1348.26 492.21C1347.87 491.183 1347.82 489.803 1348.13 488.07C1349.36 481.01 1355.45 476.2 1362.5 476.23C1368.67 476.26 1371.93 480.25 1374.12 485.99C1393.06 535.663 1406.23 586.833 1413.64 639.5C1414.2 643.486 1414.17 646.313 1413.55 647.98C1411.89 652.47 1407.08 653.88 1402.55 653.24Z" fill="#906348"/>
<path d="M1447 740.3V744.81C1445.38 761.484 1437.37 773.297 1422.96 780.25C1404.32 789.25 1381.42 782.23 1370.3 764.98C1347.04 728.89 1387.39 685.69 1425.13 705.97C1437.98 712.877 1445.27 724.32 1447 740.3Z" fill="white"/>
<path d="M785.039 1241.2C753.749 1211.85 723.589 1180.95 693.469 1150.45C693.188 1150.17 692.805 1150 692.404 1150C692.003 1150 691.616 1150.16 691.329 1150.44L595.459 1244.01C595.185 1244.28 594.859 1244.49 594.502 1244.62C594.144 1244.76 593.762 1244.82 593.38 1244.8C592.998 1244.78 592.624 1244.68 592.282 1244.51C591.939 1244.34 591.635 1244.1 591.389 1243.81L582.769 1233.6C582.399 1233.16 582.206 1232.6 582.229 1232.03C582.251 1231.46 582.486 1230.92 582.889 1230.51L676.779 1135.38C677.052 1135.1 677.049 1134.82 676.769 1134.54C663.322 1121.37 649.922 1108.27 636.569 1095.24C632.479 1091.25 624.949 1097.78 620.299 1098.59C599.539 1102.2 578.829 1084.35 565.739 1070.5C556.239 1060.45 548.775 1051.83 543.349 1044.66C542.379 1043.37 543.229 1041.59 544.369 1040.51C547.522 1037.51 550.699 1034.44 553.899 1031.29C554.423 1030.78 555.127 1030.49 555.862 1030.48C556.596 1030.48 557.302 1030.77 557.829 1031.28C576.719 1049.73 594.649 1068.79 618.449 1081.2C618.561 1081.26 618.689 1081.28 618.814 1081.26C618.939 1081.23 619.052 1081.17 619.137 1081.08C619.222 1080.98 619.273 1080.86 619.283 1080.74C619.292 1080.61 619.259 1080.49 619.189 1080.38C604.679 1058.33 583.489 1041.78 565.559 1022.65C565.081 1022.14 564.815 1021.47 564.813 1020.77C564.811 1020.07 565.074 1019.4 565.549 1018.89C569.589 1014.51 575.579 1004.68 582.519 1011.63C599.289 1028.41 615.389 1049.07 635.569 1061.38C637.279 1062.43 638.969 1062.56 639.659 1060.32C639.752 1060.01 639.729 1059.72 639.589 1059.43C639.329 1058.87 639.016 1058.34 638.649 1057.84C625.649 1039.94 609.099 1026.08 594.959 1009.35C591.309 1005.03 586.989 1000.62 588.359 995.74C590.459 988.3 599.109 986.13 605.049 990.83C625.949 1007.34 656.459 1034.56 655.199 1063.55C654.949 1069.3 649.279 1072.25 651.889 1078.25C652.389 1079.39 653.452 1080.77 655.079 1082.4C667.059 1094.37 678.822 1106.68 690.369 1119.33C690.538 1119.52 690.744 1119.67 690.974 1119.77C691.203 1119.87 691.451 1119.93 691.703 1119.94C691.955 1119.94 692.205 1119.89 692.438 1119.8C692.671 1119.7 692.883 1119.56 693.059 1119.38C706.032 1106.22 719.096 1092.93 732.249 1079.5C732.929 1078.81 733.362 1077.99 733.549 1077.04C733.613 1076.72 733.568 1076.38 733.419 1076.09C719.799 1049.06 740.369 1023.72 760.919 1008.69C782.889 992.61 810.059 1000.36 821.349 1024.43C834.219 1051.86 817.029 1077.04 794.379 1091.33C780.972 1099.78 766.952 1101.07 752.319 1095.19C750.699 1094.54 749.342 1094.73 748.249 1095.76C735.042 1108.21 721.919 1120.69 708.879 1133.22C708.433 1133.65 708.173 1134.23 708.156 1134.85C708.139 1135.47 708.366 1136.07 708.789 1136.53C733.379 1163.08 759.639 1188.17 785.149 1213.85C790.536 1219.28 794.576 1223.56 797.269 1226.71C804.549 1235.22 792.709 1248.39 785.039 1241.2Z" fill="#906348"/>
<path d="M548.33 1133.02L431.73 1132.82C428.195 1132.81 425.325 1135.67 425.319 1139.21L425.305 1147.19C425.299 1150.72 428.159 1153.59 431.694 1153.6L548.294 1153.8C551.828 1153.81 554.699 1150.95 554.705 1147.41L554.719 1139.43C554.725 1135.9 551.865 1133.03 548.33 1133.02Z" fill="white"/>
<path d="M941.548 1132.99H822.668C819.807 1132.99 817.488 1135.31 817.488 1138.17V1148.55C817.488 1151.41 819.807 1153.73 822.668 1153.73H941.548C944.409 1153.73 946.728 1151.41 946.728 1148.55V1138.17C946.728 1135.31 944.409 1132.99 941.548 1132.99Z" fill="white"/>
</g>
</g>
<defs>
<clipPath id="clip0_578_604">
<rect width="1447" height="1449" fill="white"/>
</clipPath>
</defs>
</svg>
