<?xml version="1.0" encoding="UTF-8" standalone="no"?>
<!DOCTYPE svg PUBLIC "-//W3C//DTD SVG 1.1//EN" "http://www.w3.org/Graphics/SVG/1.1/DTD/svg11.dtd">
<svg xmlns="http://www.w3.org/2000/svg" version="1.1" viewBox="0.00 0.00 254.00 59.00">
<path fill="#ffffff" d="
  M 123.80 0.00
  L 129.31 0.00
  C 150.50 1.75 168.43 12.60 185.43 25.06
  C 203.51 38.31 228.78 57.87 252.68 58.29
  Q 253.37 58.30 252.75 58.60
  C 251.62 59.14 250.01 58.41 248.68 59.00
  L 3.95 59.00
  L 0.62 58.75
  Q 0.55 58.74 0.53 58.68
  Q 0.48 58.53 0.51 58.43
  Q 0.54 58.34 0.68 58.32
  C 2.77 58.01 5.10 58.10 7.02 57.65
  C 20.32 54.52 32.59 47.86 43.63 40.35
  C 70.43 22.13 93.86 2.57 123.80 0.00
  Z"
/>
</svg>
